<svg width="8" height="8" viewBox="0 0 8 8" fill="none" xmlns="http://www.w3.org/2000/svg">
<path d="M7.7029 4.42156H6.61085V3.37202H7.7029C7.86699 3.37202 8 3.23914 8 3.07502C8 2.91088 7.86699 2.77791 7.7029 2.77791H6.61085V1.32162C6.61085 1.10904 6.56884 0.953005 6.48603 0.857959C6.40733 0.767538 6.30385 0.725464 6.16055 0.725464C6.02382 0.725464 5.92424 0.767248 5.84706 0.857104C5.76521 0.952248 5.72367 1.10857 5.72367 1.32171V2.77809H3.66947L2.79604 1.4564C2.72129 1.33845 2.651 1.22796 2.58275 1.1219C2.5213 1.02639 2.46136 0.94862 2.40475 0.890554C2.35463 0.839146 2.29751 0.79936 2.23071 0.76878C2.16768 0.740005 2.08754 0.725561 1.99274 0.725561C1.87182 0.725561 1.76205 0.758688 1.65695 0.826749C1.55294 0.894069 1.48104 0.977299 1.43713 1.08121C1.39858 1.17997 1.37819 1.33129 1.37819 1.52662V2.77799H0.296988C0.13293 2.77801 0 2.91097 0 3.0751C0 3.23922 0.13293 3.3721 0.297004 3.3721H1.37821V4.42176H0.297004C0.13293 4.42176 0 4.55469 0 4.71886C0 4.88293 0.13293 5.01577 0.297004 5.01577H1.37821V6.67849C1.37821 6.88478 1.42156 7.03923 1.50741 7.13737C1.58906 7.23095 1.69259 7.2744 1.83318 7.2744C1.96881 7.2744 2.07153 7.23076 2.15672 7.137C2.24394 7.04096 2.28807 6.8866 2.28807 6.6785V5.01577H4.14689L5.15279 6.55823C5.22274 6.66019 5.29496 6.7631 5.36699 6.86402C5.43197 6.95463 5.50287 7.03447 5.57767 7.10117C5.64503 7.16149 5.71725 7.20569 5.79233 7.23266C5.86961 7.26049 5.95993 7.27459 6.06017 7.27459C6.3322 7.27459 6.61081 7.19131 6.61081 6.57369V5.01577H7.70287C7.86696 5.01577 7.99997 4.88274 7.99997 4.71866C8 4.55459 7.86699 4.42156 7.7029 4.42156ZM5.72365 3.372V4.42155H4.75576L4.06224 3.372H5.72365ZM2.28808 2.16604L2.68723 2.77791H2.28808V2.16604ZM2.28808 4.42156V3.37202H3.0748L3.75937 4.42156H2.28808ZM5.72365 5.88648L5.14843 5.01577H5.72365V5.88648Z" fill="#969696"/>
</svg>
